<?xml version="1.0" encoding="utf-8"?>
<svg version="1.1" xmlns="http://www.w3.org/2000/svg" x="0px" y="0px"
	 viewBox="0 0 2200 2200" style="enable-background:new 0 0 2200 2200;" xml:space="preserve" fill="none">
<g id="Objects">
	<path style="fill:#FFDB6E;" d="M1606.554,1483.534c215.899,0,390.918-175.019,390.918-390.918s-175.019-390.93-390.918-390.93
		c-13.606,0-27.055,0.701-40.311,2.056c-6.18-228.525-193.354-411.89-423.38-411.89c-169.19,0-315.219,99.211-383.069,242.64
		c-27.987-11.405-58.598-17.694-90.672-17.694c-132.701,0-240.269,107.581-240.269,240.281c0,26.705,4.354,52.393,12.397,76.389
		C303.312,873.633,202.528,1001,202.528,1151.903c0,183.159,148.472,331.631,331.631,331.631h110.212v162.985H461.975
		c-5.483-31.783-33.23-56.043-66.555-56.043c-37.251,0-67.557,30.306-67.557,67.557s30.306,67.557,67.557,67.557
		c33.325,0,61.072-24.26,66.555-56.043h193.911c6.359,0,11.514-5.155,11.514-11.514v-174.499h111.941v345.543H657.869
		c-5.483-31.783-33.23-56.043-66.555-56.043c-37.251,0-67.557,30.305-67.557,67.557c0,37.252,30.305,67.557,67.557,67.557
		c33.325,0,61.072-24.26,66.555-56.043h132.986c6.359,0,11.514-5.155,11.514-11.514v-357.057h111.649v159.122
		c0,6.359,5.155,11.514,11.514,11.514s11.514-5.155,11.514-11.514v-159.122h122.872v310.124c0,6.359,5.155,11.514,11.514,11.514
		c6.359,0,11.514-5.155,11.514-11.514v-310.124h122.872v159.122c0,6.359,5.155,11.514,11.514,11.514
		c6.359,0,11.514-5.155,11.514-11.514v-159.122h111.649v357.057c0,6.359,5.155,11.514,11.514,11.514h132.985
		c5.483,31.783,33.23,56.043,66.555,56.043c37.251,0,67.557-30.305,67.557-67.557c0-37.251-30.306-67.557-67.557-67.557
		c-33.325,0-61.072,24.26-66.555,56.043h-121.471v-345.543h111.94v174.499c0,6.359,5.155,11.514,11.514,11.514h193.912
		c5.483,31.783,33.23,56.043,66.554,56.043c37.251,0,67.557-30.305,67.557-67.557s-30.306-67.557-67.557-67.557
		c-33.324,0-61.071,24.26-66.554,56.043h-182.398v-162.985H1606.554z M395.419,1702.562c-24.553,0-44.528-19.976-44.528-44.529
		c0-24.553,19.975-44.529,44.528-44.529c24.553,0,44.529,19.976,44.529,44.529C439.948,1682.586,419.972,1702.562,395.419,1702.562z
		 M591.314,1885.12c-24.553,0-44.529-19.976-44.529-44.529c0-24.552,19.976-44.529,44.529-44.529s44.529,19.976,44.529,44.529
		C635.842,1865.144,615.866,1885.12,591.314,1885.12z M1551.55,1796.063c24.552,0,44.529,19.976,44.529,44.529
		c0,24.553-19.976,44.529-44.529,44.529c-24.553,0-44.529-19.976-44.529-44.529
		C1507.021,1816.039,1526.997,1796.063,1551.55,1796.063z M1747.444,1613.505c24.552,0,44.529,19.976,44.529,44.529
		c0,24.552-19.976,44.529-44.529,44.529c-24.553,0-44.528-19.976-44.528-44.529
		C1702.916,1633.481,1722.891,1613.505,1747.444,1613.505z"/>
</g>
</svg>
